<?xml version="1.0" encoding="UTF-8" standalone="no"?>
<!DOCTYPE svg PUBLIC "-//W3C//DTD SVG 1.1//EN" "http://www.w3.org/Graphics/SVG/1.1/DTD/svg11.dtd">
<svg version="1.1" xmlns="http://www.w3.org/2000/svg" xmlns:xlink="http://www.w3.org/1999/xlink" preserveAspectRatio="xMidYMid meet" viewBox="0 0 100 220" width="100" height="220"><defs><path d="M46.39 66.02L53.61 66.02L53.61 209.4L46.39 209.4L46.39 66.02Z" id="au3ZE0jA6"></path><path d="M84.94 43.73C84.94 62.02 69.28 76.87 50 76.87C30.72 76.87 15.06 62.02 15.06 43.73C15.06 25.45 30.72 10.6 50 10.6C69.28 10.6 84.94 25.45 84.94 43.73Z" id="cL1XhvxTl"></path><path d="M22.26 33.3L23.46 29.69L25.63 26.32L28.52 23.42L31.42 21.25L34.55 19.09L37.68 17.4L40.57 16.19" id="bACErKmZ1"></path></defs><g><g><g><g><filter id="shadow2073727" x="37.39" y="57.02" width="26.23" height="162.37" filterUnits="userSpaceOnUse" primitiveUnits="userSpaceOnUse"><feFlood></feFlood><feComposite in2="SourceAlpha" operator="in"></feComposite><feGaussianBlur stdDeviation="1"></feGaussianBlur><feOffset dx="1" dy="1" result="afterOffset"></feOffset><feFlood flood-color="#534949" flood-opacity="0.5"></feFlood><feComposite in2="afterOffset" operator="in"></feComposite><feMorphology operator="dilate" radius="1"></feMorphology><feComposite in2="SourceAlpha" operator="out"></feComposite></filter><path d="M46.39 66.02L53.61 66.02L53.61 209.4L46.39 209.4L46.39 66.02Z" id="c1qLi8MGG" fill="white" fill-opacity="1" filter="url(#shadow2073727)"></path></g><use xlink:href="#au3ZE0jA6" opacity="1" fill="#e3d7d0" fill-opacity="1"></use></g><g><g><filter id="shadow15539326" x="6.06" y="1.6" width="88.88" height="85.27" filterUnits="userSpaceOnUse" primitiveUnits="userSpaceOnUse"><feFlood></feFlood><feComposite in2="SourceAlpha" operator="in"></feComposite><feGaussianBlur stdDeviation="1"></feGaussianBlur><feOffset dx="1" dy="1" result="afterOffset"></feOffset><feFlood flood-color="#785959" flood-opacity="0.5"></feFlood><feComposite in2="afterOffset" operator="in"></feComposite><feMorphology operator="dilate" radius="1"></feMorphology><feComposite in2="SourceAlpha" operator="out"></feComposite></filter><path d="M84.94 43.73C84.94 62.02 69.28 76.87 50 76.87C30.72 76.87 15.06 62.02 15.06 43.73C15.06 25.45 30.72 10.6 50 10.6C69.28 10.6 84.94 25.45 84.94 43.73Z" id="b1dBFNvHIP" fill="white" fill-opacity="1" filter="url(#shadow15539326)"></path></g><use xlink:href="#cL1XhvxTl" opacity="1" fill="#e6662d" fill-opacity="1"></use><g><filter id="shadow11846427" x="6.06" y="1.6" width="88.88" height="85.27" filterUnits="userSpaceOnUse" primitiveUnits="userSpaceOnUse"><feFlood></feFlood><feComposite in2="SourceAlpha" operator="out"></feComposite><feGaussianBlur stdDeviation="1"></feGaussianBlur><feOffset dx="1" dy="1" result="afterOffset"></feOffset><feFlood flood-color="#c38778" flood-opacity="0.8"></feFlood><feComposite in2="afterOffset" operator="in"></feComposite><feMorphology operator="dilate" radius="1"></feMorphology><feComposite in2="SourceAlpha" operator="in"></feComposite></filter><path d="M84.94 43.73C84.94 62.02 69.28 76.87 50 76.87C30.72 76.87 15.06 62.02 15.06 43.73C15.06 25.45 30.72 10.6 50 10.6C69.28 10.6 84.94 25.45 84.94 43.73Z" id="b2lTPaBmta" fill="white" fill-opacity="1" filter="url(#shadow11846427)"></path></g></g><g><use xlink:href="#bACErKmZ1" opacity="1" fill="#dbc3b5" fill-opacity="0"></use><g><use xlink:href="#bACErKmZ1" opacity="1" fill-opacity="0" stroke="#efefef" stroke-width="1" stroke-opacity="1"></use></g></g></g></g></svg>